<svg id="Layer_1" data-name="Layer 1" xmlns="http://www.w3.org/2000/svg" width="227px" height="78px" viewBox="0 0 226.44 75.96"><defs><style>.cls-1{fill:#646363;}.cls-2{fill:#ea008a;}.cls-3{fill:#73dfab;}.cls-4{fill:#6a005d;}.cls-5{fill:#1f4d64;}.cls-6{fill:#646464;}.cls-7{fill:#50c4ff;}</style></defs><title>Artboard 1</title><path class="cls-1" d="M98.56,72.45V56.16H85.43v16.3h-10V32.3h10V47H98.56V32.3h10V72.45ZM68.41,59.3H55.47V72.45h-10V32.3H70.14V41H55.47v9.61H68.41Zm-43.57-.42-4.22-9.77-4.16,9.77ZM41.2,71.36v1.09H30.75l-2.37-5H12.87l-2.31,5H0V71.36L18.44,32.18h4.48Z"/><path class="cls-2" d="M129.59,17.83a11.13,11.13,0,0,0,11,11.22V11.22h-11Z"/><path class="cls-3" d="M129.59,0H112a11.13,11.13,0,0,0,11,11.22h6.5Z"/><rect class="cls-4" x="129.59" width="11.04" height="11.22"/><rect class="cls-5" x="118.55" y="11.22" width="11.04" height="11.22"/><path class="cls-6" d="M118.55,29.05a11.13,11.13,0,0,0,11,11.22V22.44h-11Z"/><path class="cls-7" d="M118.55,11.22H101a11.13,11.13,0,0,0,11,11.22h6.5Z"/><path class="cls-6" d="M124.67,50.27l1.84,7.89h.07l2.14-7.94h1l-2.54,8.71h-1.25l-1.78-7.77h-.05l-1.77,7.77H121l-2.49-8.71h.93l2.14,7.94h.07l1.8-7.89Z"/><path class="cls-6" d="M138.15,57.06l.67.46A4.11,4.11,0,0,1,135.53,59a4.27,4.27,0,0,1-4.2-4.54,4.18,4.18,0,0,1,4.18-4.39,4,4,0,0,1,4,4.17c0,.21,0,.34,0,.57h-7.36a3.41,3.41,0,0,0,3.38,3.36A3.35,3.35,0,0,0,138.15,57.06Zm.6-3a3.2,3.2,0,0,0-3.24-3.16,3.32,3.32,0,0,0-3.36,3.16Z"/><path class="cls-6" d="M148.13,58.91,148,58a4,4,0,0,1-2.64,1.11c-2.52,0-3.7-1.32-3.7-3,0-1.53,1.34-2.88,3.86-2.9a5.15,5.15,0,0,1,2.5.72V53.2c0-1.87-1.34-2.32-2.76-2.32a4.24,4.24,0,0,0-2.5.77l-.39-.63a4.9,4.9,0,0,1,3-1c1.8,0,3.55.81,3.55,3.14v5.71ZM148,54.73a4.83,4.83,0,0,0-2.49-.69c-2,0-3,.93-3,2.11s.93,2.14,2.83,2.14A3.7,3.7,0,0,0,148,57.11Z"/><path class="cls-6" d="M154.14,58.93c-1.48.07-2.3-.75-2.3-2.44V46.91h.91V56.5c0,1,.29,1.66,1.39,1.65Z"/><path class="cls-6" d="M159.45,59a2.29,2.29,0,0,1-2.66-2.44V51h-1.29v-.74h1.29V48.09l.87-.19v2.32h1.77V51h-1.77v5.59a1.56,1.56,0,0,0,1.78,1.63Z"/><path class="cls-6" d="M163,58.91h-.89v-12H163V51a3.56,3.56,0,0,1,2.42-.91,3.74,3.74,0,0,1,4,3.88v4.94h-.89V54a3.05,3.05,0,0,0-3.12-3.05,2.89,2.89,0,0,0-2.38,1Z"/><path class="cls-6" d="M120.44,65.38v7h-.89v-8.7h.77l.12.74a3.54,3.54,0,0,1,2.42-.89c1.49.07,2.49.45,3,1.73a2.89,2.89,0,0,1,3-1.72c1.87,0,3.4,1,3.4,3.65v5.18h-.89V67.25c0-2-1.18-2.85-2.5-2.85s-2.52.62-2.54,2.67v5.35h-.84l0-5.35c-.07-1.8-1-2.69-2.64-2.69A2.9,2.9,0,0,0,120.44,65.38Z"/><path class="cls-6" d="M141.31,72.43l-.17-.93a4,4,0,0,1-2.64,1.11c-2.52,0-3.7-1.32-3.7-3,0-1.53,1.34-2.88,3.86-2.9a5.15,5.15,0,0,1,2.5.72v-.72c0-1.87-1.34-2.32-2.76-2.32a4.24,4.24,0,0,0-2.5.77l-.39-.63a4.9,4.9,0,0,1,3-1c1.8,0,3.55.81,3.55,3.14v5.71Zm-.15-4.18a4.83,4.83,0,0,0-2.49-.69c-2,0-3,.93-3,2.11s.93,2.14,2.83,2.14a3.7,3.7,0,0,0,2.66-1.18Z"/><path class="cls-6" d="M146,72.43h-.89v-8.7h.77l.12.74a3.56,3.56,0,0,1,2.42-.91c2.25,0,4.13,1.42,4.13,3.88v5h-.89v-5a3.19,3.19,0,0,0-3.28-3.05,2.91,2.91,0,0,0-2.38,1Z"/><path class="cls-6" d="M161.61,72.43l-.17-.93a4,4,0,0,1-2.64,1.11c-2.52,0-3.7-1.32-3.7-3,0-1.53,1.34-2.88,3.86-2.9a5.15,5.15,0,0,1,2.5.72v-.72c0-1.87-1.34-2.32-2.76-2.32a4.24,4.24,0,0,0-2.5.77l-.39-.63a4.9,4.9,0,0,1,3-1c1.8,0,3.55.81,3.55,3.14v5.71Zm-.15-4.18a4.83,4.83,0,0,0-2.49-.69c-2,0-3,.93-3,2.11s.93,2.14,2.83,2.14a3.7,3.7,0,0,0,2.66-1.18Z"/><path class="cls-6" d="M171.25,64.56l.15-.82h.74v8.82c0,2.44-1.77,3.28-3.6,3.26a4.43,4.43,0,0,1-3.26-1.37l.51-.58A3.79,3.79,0,0,0,168.49,75c1.51,0,2.78-.53,2.78-2.44v-1a2.83,2.83,0,0,1-2.38,1c-5.37-.07-5.35-8.87.14-8.85A3.18,3.18,0,0,1,171.25,64.56Zm0,6v-5a2.9,2.9,0,0,0-2.4-1c-4.18.26-4.17,7.17.21,7.25A2.58,2.58,0,0,0,171.25,70.51Z"/><path class="cls-6" d="M181.66,70.58l.67.46A4.11,4.11,0,0,1,179,72.55a4.27,4.27,0,0,1-4.2-4.54A4.18,4.18,0,0,1,179,63.61a4,4,0,0,1,4,4.17c0,.21,0,.34,0,.57h-7.36A3.41,3.41,0,0,0,179,71.71,3.35,3.35,0,0,0,181.66,70.58Zm.6-3A3.2,3.2,0,0,0,179,64.44a3.32,3.32,0,0,0-3.36,3.16Z"/><path class="cls-6" d="M186.67,65.38v7h-.89v-8.7h.77l.12.74a3.54,3.54,0,0,1,2.42-.89c1.49.07,2.49.45,3,1.73a2.89,2.89,0,0,1,3-1.72c1.87,0,3.4,1,3.4,3.65v5.18h-.89V67.25c0-2-1.18-2.85-2.5-2.85s-2.52.62-2.54,2.67v5.35h-.84l0-5.35c-.07-1.8-1-2.69-2.64-2.69A2.9,2.9,0,0,0,186.67,65.38Z"/><path class="cls-6" d="M207.9,70.58l.67.46a4.11,4.11,0,0,1-3.29,1.51,4.27,4.27,0,0,1-4.2-4.54,4.18,4.18,0,0,1,4.18-4.39,4,4,0,0,1,4,4.17c0,.21,0,.34,0,.57H201.9a3.41,3.41,0,0,0,3.38,3.36A3.35,3.35,0,0,0,207.9,70.58Zm.6-3a3.2,3.2,0,0,0-3.24-3.16,3.32,3.32,0,0,0-3.36,3.16Z"/><path class="cls-6" d="M212.91,72.43H212v-8.7h.77l.12.74a3.56,3.56,0,0,1,2.42-.91c2.25,0,4.13,1.42,4.13,3.88v5h-.89v-5a3.19,3.19,0,0,0-3.28-3.05,2.91,2.91,0,0,0-2.38,1Z"/><path class="cls-6" d="M225.43,72.5a2.29,2.29,0,0,1-2.66-2.44V64.47h-1.29v-.74h1.29V61.61l.87-.19v2.32h1.77v.74h-1.77v5.59a1.56,1.56,0,0,0,1.78,1.63Z"/></svg>